<svg id="logo" xmlns="http://www.w3.org/2000/svg" height="100%" width="100%" viewBox="0 0 1024 600">
    <defs>
        <style>
        .outer{
            stroke:#fff;
            stroke-width:4px;
            stroke-miterlimit:10;
        }
        .bb{
            fill:#4476ff;
            stroke-miterlimit:10;
        }
        .visor{
            fill:none;
            stroke:#fff;
            stroke-width:2px;
        }
        .body {
            fill: #fff;
        }
        </style>
    </defs>
    <title>blizzardbound</title>
    <circle class="outer" cx="794.82" cy="226.75" r="224.75"/>
    <circle class="outer" cx="228.1" cy="228.75" r="224.75" transform="translate(-96.29 226.29) rotate(-45)"/>
    <polygon class="body" points="552.32 230.85 470.58 230.85 447.23 143.67 570.32 143.67 552.32 230.85"/>
    <circle class="body" cx="228.1" cy="228.75" r="224.75" transform="translate(-96.29 226.29) rotate(-45)"/>
    <circle class="body" cx="793.41" cy="226.75" r="224.75"/>
    <polygon class="body" points="23.51 321.68 158.77 622 204.74 622 78.31 323.16 23.51 321.68"/>
    <polygon class="body" points="1001.3 312.77 862.39 622 816.41 622 942.85 323.16 1001.3 312.77"/>
    <path class="bb" d="M939.68,228.25a118.25,118.25,0,0,0-21.52-36.94,101.17,101.17,0,0,0-32.78-25,95.58,95.58,0,0,0-42-9.19,79.37,79.37,0,0,0-25.15,4.34,131.14,131.14,0,0,0-25.32,11.62,120.67,120.67,0,0,0-22.54,17.18,91.94,91.94,0,0,0-16.48,21V28.8H738.66L701.89,43.37v354.5a134,134,0,0,0,45.44,23.24,191.35,191.35,0,0,0,54.8,7.64,134.89,134.89,0,0,0,56.72-12.14A143.18,143.18,0,0,0,905,383.3a161.31,161.31,0,0,0,42.48-110A129.7,129.7,0,0,0,939.68,228.25Z" transform="translate(-1.35 -2)"/>
    <path class="bb" d="M887.63,337.18q-5.73,21.51-16.29,37.11a80.11,80.11,0,0,1-25.5,24.45,63.39,63.39,0,0,1-33,8.84,73,73,0,0,1-19.78-2.43,70.52,70.52,0,0,1-15.79-6.42,90.73,90.73,0,0,1-12.83-8.68,139.53,139.53,0,0,1-10.59-9.54V228.92a61.33,61.33,0,0,1,11.63-12.48,85.11,85.11,0,0,1,15.6-10.25,88.36,88.36,0,0,1,17.69-6.75A71.1,71.1,0,0,1,817,197a63.2,63.2,0,0,1,29.83,7.28,79.27,79.27,0,0,1,24.28,19.78,93,93,0,0,1,16.31,29.48,110.46,110.46,0,0,1,5.9,36.42A183,183,0,0,1,887.63,337.18Z" transform="translate(-1.35 -2)"/>
    <path class="bb" d="M351,256.64a85,85,0,0,0-24.22-17,113.42,113.42,0,0,0-31.61-9.41v-1a211.39,211.39,0,0,0,29.09-16.48,77.57,77.57,0,0,0,18.33-17.15,58.55,58.55,0,0,0,9.59-19.66,93.15,93.15,0,0,0,2.85-24,63.08,63.08,0,0,0-8.74-32.63,79.47,79.47,0,0,0-24.38-25.38q-15.64-10.61-37.5-16.48a184.88,184.88,0,0,0-48.09-5.89H104.11V399.4h153q26.22,0,47.42-6.9t36.16-18.83a83.53,83.53,0,0,0,23-28.09,77.1,77.1,0,0,0,8.07-35,81.38,81.38,0,0,0-5.38-30.1A71.06,71.06,0,0,0,351,256.64Z" transform="translate(-1.35 -2)"/>
    <path class="bb" d="M159.26,93.37h45.39q24.56,0,42.37,4.54t29.43,12.78a49.68,49.68,0,0,1,17,20,62.33,62.33,0,0,1,5.39,26.23,64.93,64.93,0,0,1-4.7,24.89,55.83,55.83,0,0,1-13.46,19.66,61.92,61.92,0,0,1-21.7,13,85.71,85.71,0,0,1-29.42,4.7H159.24V93.37Z" transform="translate(-1.35 -2)"/>
    <path class="bb" d="M306.72,338a52.6,52.6,0,0,1-17.15,20q-11.61,8.4-29.09,13t-41.7,4.53H159.26V239.31H217.1q26.57,0,44.73,5.72t29.42,15.48a55,55,0,0,1,16.15,23.2,84.28,84.28,0,0,1,4.88,28.93A58.09,58.09,0,0,1,306.72,338Z" transform="translate(-1.35 -2)"/>
    <line class="visor" x1="46.18" y1="191.63" x2="247.68" y2="44.38"/>
    <line class="visor" x1="83.53" y1="240.06" x2="324.07" y2="64.61"/>
    <line class="visor" x1="80.63" y1="324.71" x2="383.37" y2="112.05"/>
    <line class="visor" x1="85.13" y1="408.15" x2="421.69" y2="176.38"/>
    <line class="visor" x1="175.82" y1="436.36" x2="404.29" y2="281"/>
    <line class="visor" x1="612.45" y1="183.36" x2="813.95" y2="36.11"/>
    <line class="visor" x1="649.8" y1="231.8" x2="890.34" y2="56.35"/>
    <line class="visor" x1="644.58" y1="314.9" x2="947.31" y2="102.23"/>
    <line class="visor" x1="670.38" y1="391.05" x2="991.05" y2="169.67"/>
    <line class="visor" x1="742.09" y1="428.09" x2="970.56" y2="272.73"/>
</svg>